<svg id="svg" version="1.1" xmlns="http://www.w3.org/2000/svg" xmlns:xlink="http://www.w3.org/1999/xlink" width="400" height="130.83109919571044" viewBox="0, 0, 400,130.83109919571044"><g id="svgg"><path id="path0" d="M88.667 13.027 C 82.184 14.272,79.931 14.982,77.067 16.684 C 75.976 17.332,74.221 18.302,73.167 18.840 C 72.112 19.378,70.537 20.275,69.667 20.835 C 68.796 21.394,67.511 22.157,66.811 22.531 C 65.480 23.241,60.794 26.658,58.450 28.625 C 57.698 29.257,56.623 30.122,56.061 30.548 C 55.043 31.320,51.717 34.301,49.333 36.578 C 48.646 37.235,47.483 38.208,46.750 38.740 C 44.999 40.011,44.198 40.787,42.867 42.500 C 41.283 44.538,41.081 44.770,37.983 48.087 C 36.440 49.738,34.667 51.763,34.042 52.587 C 33.418 53.410,32.269 54.871,31.490 55.833 C 30.180 57.451,29.241 58.843,28.624 60.083 C 27.321 62.703,29.313 61.331,35.167 55.578 C 37.412 53.371,40.188 50.824,41.333 49.918 C 42.479 49.013,43.904 47.808,44.500 47.240 C 45.096 46.672,47.308 44.912,49.417 43.327 C 51.525 41.743,53.737 40.057,54.333 39.580 C 57.186 37.299,61.416 34.712,64.500 33.363 C 65.738 32.821,67.426 32.040,68.250 31.626 C 74.460 28.510,83.622 28.162,87.871 30.880 C 92.096 33.583,95.653 40.092,96.179 46.083 C 96.434 48.989,96.654 51.152,96.831 52.474 C 96.963 53.463,96.931 54.144,96.664 56.018 C 96.057 60.276,96.215 64.747,96.988 65.160 C 97.799 65.594,102.006 61.889,104.362 58.667 C 106.154 56.215,113.844 48.452,116.833 46.076 C 117.520 45.530,118.950 44.371,120.010 43.500 C 127.694 37.188,134.529 33.161,140.083 31.671 C 154.308 27.854,164.065 32.345,172.122 46.417 C 174.233 50.105,175.625 53.328,176.691 57.000 C 177.050 58.237,177.603 60.038,177.918 61.000 C 178.809 63.714,179.781 68.179,180.819 74.318 C 181.402 77.764,182.464 79.065,183.391 77.468 C 184.257 75.976,185.629 70.636,186.161 66.684 C 186.329 65.437,186.656 63.667,186.887 62.750 C 187.628 59.809,187.611 57.374,186.832 54.833 C 186.530 53.846,186.221 52.309,185.085 46.145 C 184.735 44.249,183.747 40.765,182.798 38.083 C 180.594 31.858,174.082 23.260,169.167 20.084 C 166.709 18.497,162.562 16.958,159.750 16.590 C 159.292 16.530,158.137 16.334,157.184 16.154 C 154.614 15.669,152.371 15.585,150.667 15.910 C 149.887 16.059,148.237 16.362,147.000 16.583 C 138.379 18.127,127.757 23.858,118.891 31.751 C 115.209 35.030,114.073 34.697,112.331 29.833 C 109.036 20.631,105.067 16.335,97.483 13.762 C 93.293 12.340,92.560 12.279,88.667 13.027 M212.000 16.005 C 203.766 16.979,194.694 23.000,189.290 31.077 C 186.460 35.308,186.123 36.492,186.966 39.250 C 188.232 43.393,189.093 47.181,189.340 49.687 C 189.442 50.730,189.633 52.296,189.762 53.167 C 190.139 55.698,190.087 62.626,189.673 64.929 C 188.550 71.182,188.790 73.277,190.794 74.745 C 195.497 78.188,202.806 78.974,209.558 76.762 C 219.294 73.573,228.934 62.258,232.005 50.417 C 232.290 49.317,232.668 47.861,232.845 47.182 C 233.266 45.563,233.328 35.206,232.929 33.120 C 231.911 27.799,228.866 22.970,224.774 20.189 C 220.403 17.218,215.454 15.597,212.000 16.005 M337.250 18.662 C 332.463 19.670,329.969 20.898,325.583 24.404 C 324.758 25.064,323.587 25.952,322.980 26.378 C 320.496 28.122,315.741 34.566,314.239 38.225 C 313.894 39.064,313.206 40.709,312.710 41.882 C 310.332 47.495,309.691 56.876,311.291 62.651 C 311.742 64.280,314.040 69.184,315.030 70.631 C 318.378 75.524,328.514 79.401,335.144 78.325 C 341.340 77.320,343.423 75.297,344.661 69.083 C 344.862 68.075,345.208 66.524,345.430 65.636 C 346.393 61.783,345.676 61.178,342.371 63.058 C 335.657 66.877,329.086 66.229,327.345 61.577 C 326.179 58.461,327.422 57.485,331.917 57.988 C 333.875 58.208,334.385 58.160,338.963 57.333 C 342.026 56.780,345.988 54.979,348.667 52.923 C 349.446 52.325,350.683 51.410,351.417 50.889 C 357.602 46.499,360.983 37.497,359.325 29.833 C 357.526 21.524,347.574 16.487,337.250 18.662 M215.333 30.013 C 218.024 31.230,218.847 34.129,218.485 41.118 C 217.836 53.669,207.321 67.352,200.879 64.028 C 194.453 60.711,197.597 42.919,206.302 33.343 C 209.202 30.153,212.749 28.845,215.333 30.013 M343.318 31.409 C 348.065 33.814,347.663 40.965,342.577 44.594 C 337.851 47.967,329.405 48.734,328.323 45.889 C 327.664 44.157,329.409 40.608,332.941 36.495 C 337.098 31.655,340.506 29.984,343.318 31.409 M363.234 63.837 C 359.962 64.182,356.644 65.953,354.033 68.749 C 351.925 71.006,351.823 71.765,353.241 74.615 C 354.799 77.747,355.163 77.745,358.256 74.596 C 361.780 71.010,363.056 70.277,366.165 70.057 C 370.059 69.780,372.929 71.370,374.585 74.720 C 376.322 78.234,374.902 80.663,369.504 83.415 C 361.844 87.319,359.151 89.592,356.849 94.097 C 355.123 97.474,355.622 99.110,358.866 100.708 C 361.336 101.925,362.104 101.425,363.667 97.583 C 365.360 93.422,367.371 91.628,374.000 88.363 C 379.310 85.749,380.334 84.924,381.222 82.548 C 383.542 76.345,381.692 69.962,376.583 66.543 C 372.497 63.808,369.420 63.184,363.234 63.837 M308.000 83.440 C 299.174 85.213,296.140 86.741,294.480 90.251 C 292.434 94.577,294.097 97.085,301.667 101.089 C 303.179 101.889,304.919 102.867,305.534 103.263 C 308.776 105.352,308.214 108.093,304.141 110.064 C 297.625 113.217,293.044 111.700,295.522 107.210 C 296.610 105.238,296.393 104.097,294.846 103.667 C 290.515 102.464,286.764 108.008,288.926 112.417 C 291.626 117.920,304.069 118.303,310.822 113.090 C 317.239 108.136,316.289 103.628,307.917 99.316 C 304.320 97.464,302.552 96.052,301.827 94.455 C 300.676 91.918,303.274 89.556,307.418 89.372 C 310.895 89.218,311.657 89.886,311.086 92.583 C 310.234 96.610,313.673 97.378,317.855 94.096 C 321.717 91.065,319.004 85.468,312.917 83.908 C 311.315 83.498,308.872 83.265,308.000 83.440 M287.583 83.659 C 287.308 83.727,286.633 83.974,286.083 84.208 C 284.488 84.884,283.890 85.008,281.427 85.173 C 277.679 85.423,276.108 86.070,273.389 88.483 C 263.078 97.632,258.683 111.219,264.625 115.577 C 266.743 117.131,269.159 117.241,272.413 115.934 C 274.825 114.965,275.262 114.969,276.805 115.967 C 279.476 117.697,281.661 116.857,282.575 113.750 C 282.817 112.925,283.348 111.275,283.753 110.083 C 284.159 108.892,284.721 106.979,285.003 105.833 C 285.285 104.688,285.701 103.134,285.928 102.381 C 286.155 101.629,286.593 100.054,286.901 98.881 C 287.768 95.588,289.133 91.100,289.856 89.167 C 291.441 84.929,290.606 82.905,287.583 83.659 M195.688 84.846 C 194.171 85.453,193.295 86.744,190.268 92.833 C 186.650 100.110,185.161 104.876,185.385 108.469 C 185.863 116.163,192.872 118.739,198.583 113.320 C 201.120 110.913,202.434 110.904,203.303 113.286 C 204.023 115.259,205.101 116.333,206.361 116.333 C 207.558 116.333,207.980 115.691,208.567 112.975 C 209.459 108.854,211.229 102.145,212.247 99.032 C 213.610 94.863,215.167 88.776,215.167 87.617 C 215.167 86.109,214.384 85.497,212.464 85.504 C 210.205 85.512,209.792 85.953,207.165 91.167 C 206.172 93.138,204.987 95.321,204.531 96.019 C 204.076 96.717,203.233 98.105,202.660 99.102 C 199.266 105.005,195.741 108.833,193.701 108.833 C 190.356 108.833,191.443 103.544,197.206 91.789 C 199.743 86.611,199.883 86.056,198.872 85.153 C 198.289 84.632,196.624 84.471,195.688 84.846 M241.750 84.868 C 240.330 85.364,239.735 86.519,238.502 91.179 C 238.149 92.514,237.583 94.277,237.246 95.095 C 236.474 96.967,235.740 99.139,234.658 102.750 C 234.191 104.308,233.391 106.858,232.881 108.417 C 231.426 112.860,231.593 114.021,233.851 115.149 C 236.692 116.569,237.765 115.437,239.497 109.196 C 241.143 103.260,242.027 101.014,244.020 97.699 C 247.215 92.386,250.406 89.719,252.125 90.923 C 253.334 91.770,252.963 94.168,250.475 101.583 C 246.895 112.257,246.829 113.692,249.857 114.994 C 252.394 116.086,253.173 115.386,254.346 110.960 C 255.082 108.187,256.725 103.143,257.833 100.257 C 260.497 93.320,260.016 88.041,256.508 85.699 C 254.544 84.387,253.322 84.402,250.301 85.772 C 247.677 86.962,246.640 86.975,245.208 85.834 C 243.816 84.726,242.893 84.468,241.750 84.868 M282.179 90.987 C 283.241 92.049,282.955 92.860,277.698 103.680 C 274.472 110.317,269.656 113.487,268.086 110.005 C 265.765 104.859,278.656 87.464,282.179 90.987 M324.970 107.255 C 322.529 108.033,320.842 111.224,321.562 113.702 C 322.591 117.240,328.158 117.026,329.941 113.381 C 331.592 110.008,328.456 106.143,324.970 107.255 M353.387 107.654 C 348.389 110.018,349.534 117.351,354.842 116.967 C 358.097 116.732,360.856 112.784,359.570 110.203 C 358.300 107.654,355.675 106.572,353.387 107.654 M338.546 107.609 C 334.811 108.932,333.976 114.280,337.250 115.917 C 341.518 118.051,346.417 112.550,343.394 109.018 C 342.187 107.608,340.188 107.027,338.546 107.609 " stroke="none" fill="#107ec8" fill-rule="evenodd"></path><path id="path1" d="M302.417 19.745 C 301.202 19.908,298.127 19.974,291.083 19.990 C 279.075 20.016,278.614 20.068,277.453 21.525 C 276.220 23.073,275.083 29.168,275.780 30.494 C 276.433 31.738,276.429 31.738,284.083 31.854 C 291.458 31.966,291.869 32.014,292.573 32.851 C 293.646 34.127,292.525 36.440,287.787 42.725 C 286.968 43.811,285.640 45.733,284.837 46.995 C 284.033 48.257,282.742 50.180,281.968 51.270 C 279.551 54.669,278.458 56.252,274.673 61.833 C 272.653 64.813,270.562 67.887,270.026 68.667 C 265.200 75.677,264.925 76.527,267.273 77.147 C 268.229 77.400,303.196 77.439,304.103 77.189 C 305.593 76.777,306.233 75.782,306.984 72.706 C 308.660 65.843,308.336 65.187,303.201 65.035 C 301.639 64.988,299.833 65.048,298.535 65.188 C 294.155 65.661,292.513 65.413,291.777 64.167 C 291.012 62.873,291.360 62.188,296.492 54.891 C 297.276 53.777,298.538 51.902,299.297 50.724 C 300.056 49.547,301.536 47.383,302.585 45.917 C 303.634 44.450,306.811 39.800,309.645 35.583 C 312.479 31.367,315.529 26.979,316.423 25.833 C 320.073 21.157,319.608 19.803,314.333 19.746 C 313.096 19.733,310.283 19.677,308.083 19.621 C 305.172 19.548,303.630 19.582,302.417 19.745 M247.417 20.151 C 244.509 20.395,243.621 21.459,242.746 25.750 C 242.333 27.776,241.784 29.943,240.400 35.000 C 240.087 36.146,239.680 37.780,239.496 38.631 C 239.125 40.346,238.113 44.021,236.755 48.583 C 235.471 52.899,234.518 56.437,233.983 58.878 C 233.727 60.048,233.254 61.848,232.932 62.878 C 232.611 63.908,232.227 65.275,232.079 65.917 C 231.931 66.558,231.395 68.508,230.889 70.250 C 228.902 77.078,229.031 77.224,237.130 77.302 C 245.016 77.379,245.255 77.251,246.504 72.302 C 246.696 71.540,247.143 69.979,247.497 68.833 C 247.851 67.688,248.408 65.722,248.735 64.466 C 249.061 63.210,249.590 61.373,249.908 60.383 C 250.227 59.393,250.608 57.871,250.754 57.000 C 251.108 54.889,251.444 53.600,252.928 48.652 C 255.270 40.841,256.448 38.702,259.802 36.169 C 261.795 34.664,263.404 34.429,268.286 34.932 C 270.681 35.179,271.001 34.762,272.367 29.602 C 273.980 23.509,274.036 22.336,272.770 21.070 C 271.590 19.890,269.921 19.918,265.833 21.186 C 262.639 22.178,261.524 22.184,259.913 21.222 C 259.273 20.840,258.450 20.442,258.083 20.339 C 257.272 20.111,249.530 19.974,247.417 20.151 " stroke="none" fill="#bc0c1d" fill-rule="evenodd"></path><path id="path2" d="" stroke="none" fill="#bcc0100" fill-rule="evenodd"></path><path id="path3" d="" stroke="none" fill="#bcc0100" fill-rule="evenodd"></path></g></svg>